<?xml version="1.0" standalone="no"?>
<!DOCTYPE svg PUBLIC "-//W3C//DTD SVG 20010904//EN"
 "http://www.w3.org/TR/2001/REC-SVG-20010904/DTD/svg10.dtd">
<svg version="1.0" xmlns="http://www.w3.org/2000/svg"
 width="2211.000000pt" height="2211.000000pt" viewBox="0 0 2211.000000 2211.000000"
 preserveAspectRatio="xMidYMid meet">
<metadata>
Created by potrace 1.11, written by Peter Selinger 2001-2013
</metadata>
<g transform="translate(0.000000,2211.000000) scale(0.100000,-0.100000)"
fill="#000000" stroke="none">
<path d="M455 20983 c-42 -11 -45 -20 -45 -155 l0 -130 59 -157 c130 -344 227
-683 256 -896 18 -137 66 -388 130 -682 61 -278 67 -319 70 -468 3 -175 119
-940 230 -1520 24 -126 60 -363 80 -525 66 -544 146 -1040 200 -1255 85 -332
244 -718 440 -1070 25 -44 48 -87 52 -95 4 -8 35 -60 68 -115 34 -55 77 -125
96 -155 84 -137 262 -383 384 -530 103 -123 360 -386 450 -458 38 -31 72 -60
75 -63 23 -26 197 -147 295 -206 163 -96 550 -253 628 -253 15 0 27 -4 27 -10
0 -5 12 -13 28 -16 15 -4 77 -33 137 -65 192 -101 385 -169 592 -209 188 -36
253 -36 653 0 130 12 442 64 486 80 14 6 49 10 77 9 l52 -1 -41 -8 c-23 -5
-65 -21 -93 -37 -29 -15 -61 -32 -71 -38 -11 -5 -20 -13 -20 -17 0 -5 -6 -8
-14 -8 -8 0 -21 -6 -28 -13 -7 -6 -30 -21 -50 -32 -21 -11 -38 -23 -38 -27 0
-5 -5 -8 -10 -8 -10 0 -268 -184 -280 -199 -3 -4 -25 -22 -50 -41 -44 -35 -82
-65 -104 -85 -6 -6 -31 -26 -56 -45 -25 -19 -54 -43 -65 -55 -11 -11 -38 -35
-60 -54 -85 -72 -216 -204 -292 -294 -89 -106 -218 -279 -236 -317 -4 -8 -21
-37 -37 -65 -17 -27 -33 -57 -37 -65 -3 -8 -23 -52 -44 -97 -22 -46 -39 -90
-39 -98 0 -8 -4 -23 -9 -33 -15 -27 -41 -118 -41 -142 0 -12 -5 -30 -10 -41
-6 -10 -15 -47 -20 -82 -5 -34 -16 -111 -25 -172 -9 -60 -21 -166 -25 -235 -5
-69 -12 -143 -17 -165 -7 -35 -8 -630 -4 -1445 1 -287 -8 -729 -18 -815 -3
-33 -4 -76 0 -95 6 -35 6 -35 17 -10 9 20 11 1 13 -100 2 -164 1 -186 -17
-310 -21 -151 -42 -224 -95 -332 -5 -10 -9 -26 -9 -35 0 -10 -7 -27 -15 -37
-8 -11 -15 -30 -15 -43 0 -13 -4 -23 -10 -23 -5 0 -12 -16 -16 -35 -3 -19 -10
-35 -15 -35 -5 0 -9 -8 -9 -17 0 -9 -9 -36 -20 -60 -11 -24 -29 -64 -41 -91
-11 -26 -32 -72 -46 -102 -14 -30 -36 -77 -48 -105 -13 -27 -49 -104 -80 -170
-31 -66 -64 -136 -74 -155 -9 -19 -19 -36 -24 -38 -4 -2 -7 -14 -7 -27 0 -13
-4 -25 -8 -27 -5 -1 -42 -70 -83 -153 -40 -82 -84 -167 -96 -187 -13 -21 -23
-44 -23 -53 0 -8 -4 -15 -8 -15 -5 0 -18 -21 -31 -48 -20 -43 -38 -78 -139
-266 -18 -32 -32 -65 -32 -72 0 -8 -4 -14 -8 -14 -5 0 -16 -19 -26 -42 -9 -24
-24 -55 -32 -70 -8 -14 -14 -33 -14 -42 0 -9 -4 -24 -9 -34 -17 -30 -41 -120
-41 -149 0 -16 -5 -34 -10 -39 -6 -6 -15 -53 -20 -105 -16 -151 -27 -225 -35
-239 -4 -6 -11 -37 -15 -68 -5 -32 -13 -84 -19 -117 -12 -68 -17 -222 -12
-370 2 -55 1 -114 -3 -130 -18 -89 -38 -349 -43 -565 -10 -457 33 -768 152
-1090 22 -58 79 -163 121 -221 54 -74 172 -179 231 -206 30 -14 56 -30 59 -37
7 -18 169 -2 228 23 67 29 163 129 204 212 17 37 32 70 32 75 0 5 20 38 45 73
107 153 215 543 259 936 9 72 27 207 41 300 43 283 60 513 80 1090 8 231 19
458 24 505 5 47 15 135 21 195 12 127 29 241 66 445 23 127 41 199 99 400 27
93 114 282 168 362 75 112 203 237 302 292 17 9 46 26 65 38 19 11 96 52 170
90 105 55 157 75 236 93 56 13 285 84 510 158 465 154 563 182 689 197 50 6
196 31 325 55 129 24 275 46 324 50 193 14 464 70 646 134 47 16 117 41 156
55 78 27 203 87 225 108 8 7 39 30 71 52 143 97 371 309 506 471 146 174 275
393 363 615 53 134 79 218 129 420 47 191 117 764 160 1320 16 207 39 493 50
620 6 63 17 198 25 300 15 178 33 371 56 585 10 98 25 196 55 365 28 157 35
195 51 255 10 37 17 120 20 220 3 146 30 372 53 450 12 37 34 177 65 410 9 66
31 190 50 275 45 206 51 242 70 399 11 86 29 174 51 244 19 60 34 114 34 121
0 7 -9 21 -21 32 -11 10 -18 26 -16 36 3 10 1 20 -3 23 -5 3 -7 14 -5 25 2 12
0 18 -5 15 -10 -6 -24 70 -15 85 3 5 2 10 -3 10 -6 0 -12 15 -14 33 -3 17 -16
82 -31 142 -14 61 -28 144 -31 185 -13 150 -23 199 -55 247 -17 26 -31 52 -31
60 0 14 -63 216 -87 278 -27 70 -41 109 -57 160 -38 122 -90 234 -128 275 -12
12 -33 46 -48 74 -22 43 -81 145 -127 221 -7 11 -15 27 -19 35 -4 8 -17 29
-29 45 -12 17 -25 37 -29 45 -13 28 -85 138 -203 310 -190 277 -507 644 -863
1001 -306 307 -474 458 -730 659 -134 106 -322 240 -336 240 -2 0 -40 22 -83
49 -240 148 -514 256 -1031 406 -247 71 -683 208 -800 250 -36 13 -119 42
-185 65 -66 23 -165 58 -220 79 -55 21 -163 62 -240 91 -77 29 -178 67 -225
85 -47 18 -141 54 -210 80 -69 25 -145 55 -170 65 -87 36 -449 159 -542 184
-29 9 -80 22 -113 32 -33 9 -80 20 -105 25 -147 28 -229 53 -650 197 -256 88
-492 167 -525 176 -33 10 -91 32 -130 51 -38 18 -97 44 -130 58 -33 14 -105
51 -160 82 -162 92 -400 208 -542 264 -73 28 -165 71 -205 95 -160 94 -378
208 -473 246 -55 22 -102 39 -105 39 -3 -1 -14 -4 -25 -6z m379 -407 c290
-135 706 -526 820 -771 18 -38 50 -121 72 -183 36 -106 38 -115 23 -140 -21
-39 -61 -50 -101 -29 -187 98 -244 131 -313 177 -124 84 -341 309 -464 483
-142 199 -222 402 -190 480 16 38 42 35 153 -17z m1211 -653 c90 -89 88 -260
-4 -405 -29 -45 -44 -53 -116 -61 -35 -4 -48 59 -41 207 8 148 19 209 46 254
26 43 75 45 115 5z m-764 -552 c47 -11 104 -27 125 -36 21 -9 77 -21 123 -26
142 -16 155 -38 52 -86 -62 -30 -78 -33 -157 -33 -153 0 -319 45 -374 100 -22
22 -26 70 -8 88 18 18 141 14 239 -7z m565 -73 c67 -59 211 -228 237 -278 l26
-50 -69 35 c-83 42 -162 117 -224 212 -45 69 -53 92 -39 106 13 14 33 6 69
-25z m7784 -5614 c-138 -142 -708 -546 -1120 -794 -422 -254 -1132 -535 -1780
-704 -190 -49 -634 -138 -675 -135 -5 0 130 36 300 78 369 93 612 165 910 271
648 231 974 382 1395 649 203 129 770 508 895 599 61 44 112 81 115 81 2 1
-16 -20 -40 -45z m-3607 -1641 c-7 -2 -19 -2 -25 0 -7 3 -2 5 12 5 14 0 19 -2
13 -5z m-2124 -8702 c58 -81 131 -272 131 -343 0 -30 -30 -68 -54 -68 -35 0
-58 38 -92 150 -53 175 -69 257 -55 286 9 21 14 23 30 14 11 -5 29 -23 40 -39z
m-421 -17 c48 -33 19 -102 -77 -182 -116 -97 -187 -142 -221 -142 -78 0 -94
73 -33 148 47 58 144 128 196 144 23 7 56 20 72 30 36 22 35 22 63 2z m189
-179 c14 -45 68 -282 83 -365 31 -163 29 -405 -4 -499 -22 -60 -97 -170 -150
-219 -39 -36 -120 -72 -162 -72 -21 0 -73 68 -81 107 -17 78 -8 381 15 508 40
229 116 437 184 509 22 22 44 49 50 59 17 32 51 17 65 -28z"/>
<path d="M21515 20946 c-95 -40 -307 -150 -463 -243 -40 -23 -132 -66 -205
-94 -142 -56 -380 -172 -542 -264 -55 -31 -127 -68 -160 -82 -33 -14 -91 -40
-130 -58 -38 -19 -97 -41 -130 -51 -33 -9 -269 -88 -525 -176 -421 -144 -503
-169 -650 -197 -25 -5 -72 -16 -105 -25 -33 -10 -84 -23 -113 -32 -93 -25
-455 -148 -542 -184 -25 -10 -101 -40 -170 -65 -69 -26 -163 -62 -210 -80 -47
-18 -148 -56 -225 -85 -77 -29 -185 -70 -240 -91 -55 -21 -154 -56 -220 -79
-66 -23 -149 -52 -185 -65 -117 -42 -553 -179 -800 -250 -517 -150 -791 -258
-1031 -406 -43 -27 -81 -49 -83 -49 -2 0 -41 -25 -87 -56 -403 -273 -941 -769
-1413 -1304 -134 -152 -343 -415 -429 -540 -118 -172 -190 -282 -203 -310 -4
-8 -17 -28 -29 -45 -12 -16 -25 -37 -29 -45 -4 -8 -12 -24 -19 -35 -46 -76
-105 -178 -127 -221 -15 -28 -36 -62 -48 -74 -38 -41 -90 -153 -128 -275 -9
-27 -23 -68 -31 -90 -8 -22 -21 -56 -28 -75 -24 -62 -85 -260 -85 -273 0 -8
-14 -34 -31 -60 -32 -48 -42 -97 -55 -247 -5 -66 -48 -282 -60 -301 -2 -4 -6
-24 -9 -45 -3 -22 -8 -51 -10 -66 -2 -15 -8 -35 -13 -45 -5 -10 -7 -24 -4 -32
2 -8 0 -11 -5 -8 -6 4 -8 -3 -6 -16 3 -14 -3 -30 -16 -41 -12 -11 -21 -25 -21
-32 0 -7 15 -61 34 -121 22 -70 40 -158 51 -244 19 -157 25 -193 70 -399 19
-85 41 -209 50 -275 31 -233 53 -373 65 -410 23 -78 50 -304 53 -450 3 -102
10 -182 20 -220 9 -33 23 -100 32 -150 9 -49 20 -112 25 -140 21 -112 39 -236
49 -330 23 -214 41 -407 56 -585 8 -102 19 -237 25 -300 11 -127 34 -413 50
-620 43 -556 113 -1129 160 -1320 50 -202 76 -286 129 -420 88 -222 217 -441
363 -615 135 -162 363 -374 506 -471 32 -22 63 -45 71 -52 22 -21 147 -81 225
-108 39 -14 109 -39 156 -55 182 -64 453 -120 646 -134 49 -4 195 -26 324 -50
129 -24 276 -49 325 -55 126 -15 224 -43 689 -197 225 -74 454 -145 510 -158
79 -18 131 -38 236 -93 74 -38 151 -79 170 -90 19 -12 49 -29 65 -38 99 -55
227 -180 302 -292 54 -80 141 -269 168 -362 58 -201 76 -273 99 -400 37 -204
54 -318 66 -445 6 -60 16 -148 21 -195 5 -47 16 -274 24 -505 20 -577 37 -807
80 -1090 14 -93 32 -228 41 -300 44 -393 152 -783 259 -936 25 -35 45 -68 45
-73 0 -5 17 -43 37 -83 43 -86 129 -174 202 -205 56 -24 218 -40 225 -22 3 7
29 23 59 37 59 27 177 132 231 206 42 58 99 163 121 221 119 322 162 633 152
1090 -3 135 -13 308 -21 385 -9 77 -20 172 -24 212 -4 39 -4 111 0 160 9 92
-5 314 -23 359 -5 14 -9 40 -9 59 0 19 -5 46 -11 62 -12 29 -22 95 -39 253 -6
52 -15 99 -20 104 -6 6 -10 23 -10 39 0 29 -24 119 -41 149 -5 10 -9 25 -9 34
0 9 -6 28 -14 42 -8 15 -23 46 -32 69 -10 24 -21 43 -26 43 -4 0 -8 6 -8 14 0
7 -16 42 -35 77 -19 35 -45 85 -57 112 -12 26 -25 47 -30 47 -4 0 -8 9 -8 19
0 11 -5 23 -10 26 -6 3 -19 25 -30 48 -11 23 -24 49 -29 57 -23 42 -42 79
-120 235 -46 94 -88 172 -93 173 -4 2 -8 12 -8 23 0 11 -11 37 -25 59 -14 22
-25 43 -25 46 0 4 -25 58 -55 120 -30 63 -55 118 -55 124 0 5 -4 10 -10 10 -5
0 -10 7 -10 16 0 9 -6 28 -14 42 -14 28 -59 125 -81 177 -7 17 -24 55 -38 85
-14 30 -34 79 -44 108 -10 28 -21 52 -25 52 -5 0 -8 10 -8 23 0 12 -6 31 -13
42 -7 11 -19 40 -27 65 -7 25 -19 56 -25 70 -33 70 -50 133 -69 270 -18 124
-19 146 -17 310 2 100 4 120 13 100 l11 -25 6 30 c4 17 3 62 0 100 -17 183
-20 556 -14 1580 1 297 -1 581 -6 630 -5 50 -13 146 -18 215 -5 69 -17 175
-26 235 -9 61 -20 138 -25 172 -5 35 -14 72 -20 82 -5 11 -10 29 -10 41 0 24
-26 115 -41 142 -5 10 -9 24 -9 32 0 15 -67 167 -96 219 -9 15 -21 38 -27 50
-100 187 -358 495 -562 668 -21 19 -46 41 -55 49 -8 8 -38 33 -65 55 -28 22
-60 50 -72 62 -12 13 -26 23 -32 23 -5 0 -11 3 -13 8 -1 4 -23 23 -48 42 -25
19 -47 37 -50 41 -12 15 -270 199 -280 199 -5 0 -10 3 -10 8 0 4 -17 16 -37
27 -21 11 -44 26 -51 32 -7 7 -20 13 -28 13 -8 0 -14 3 -14 8 0 4 -9 12 -20
17 -10 6 -42 23 -71 38 -28 16 -70 32 -93 37 l-41 8 52 1 c28 1 63 -3 77 -9
44 -16 356 -68 486 -80 400 -36 465 -36 653 0 207 40 400 108 592 209 61 32
122 61 138 65 15 3 27 11 27 16 0 6 12 10 28 10 77 0 464 157 627 253 211 126
393 275 615 503 211 217 439 508 589 754 19 30 62 100 96 155 33 55 64 107 68
115 4 8 27 51 52 95 196 352 355 738 440 1070 54 215 134 711 200 1255 20 162
56 399 80 525 111 580 227 1345 230 1520 3 149 9 190 70 468 64 294 112 545
130 682 29 213 126 552 256 896 l59 157 0 130 c0 92 -4 132 -12 140 -32 25
-73 20 -173 -22z m-86 -353 c13 -32 3 -110 -24 -183 -43 -121 -169 -318 -294
-460 -193 -219 -321 -325 -506 -420 -49 -26 -106 -56 -125 -68 -48 -30 -84
-28 -109 4 -12 15 -21 34 -21 43 0 23 77 236 110 306 88 184 386 489 660 675
79 54 237 129 271 130 20 0 29 -7 38 -27z m-1241 -695 c19 -38 26 -75 34 -185
12 -142 7 -217 -16 -248 -11 -16 -17 -16 -52 -5 -64 20 -67 24 -109 105 -35
67 -40 88 -44 157 -4 93 13 148 61 197 26 26 38 31 67 29 32 -3 39 -9 59 -50z
m880 -520 c18 -18 14 -66 -8 -88 -55 -55 -221 -100 -374 -100 -79 0 -95 3
-157 33 -103 48 -90 70 52 86 46 5 102 17 123 26 105 44 336 71 364 43z m-730
-70 c5 -25 -81 -153 -145 -215 -30 -29 -85 -69 -123 -88 l-69 -35 26 50 c26
50 170 219 237 278 40 35 69 38 74 10z m-7264 -6013 c177 -117 365 -240 419
-273 387 -243 726 -399 1352 -622 298 -106 541 -178 910 -271 171 -42 305 -78
300 -78 -41 -3 -485 86 -675 135 -648 169 -1358 450 -1780 704 -416 250 -986
655 -1120 795 -38 39 -19 29 114 -65 87 -62 303 -208 480 -325z m3039 -1252
c-7 -2 -19 -2 -25 0 -7 3 -2 5 12 5 14 0 19 -2 13 -5z m2171 -8738 c-3 -27
-17 -84 -29 -125 -13 -41 -32 -107 -44 -147 -28 -96 -68 -126 -111 -83 -24 24
-25 56 -5 135 21 82 109 259 142 285 26 20 28 21 41 3 9 -13 11 -33 6 -68z
m411 17 c17 -10 49 -23 72 -30 52 -16 149 -86 196 -144 60 -74 45 -148 -31
-148 -37 0 -105 43 -223 142 -96 80 -125 149 -77 182 28 20 27 20 63 -2z
m-186 -149 c5 -10 27 -37 49 -59 68 -72 144 -280 184 -509 23 -127 32 -430 15
-508 -8 -39 -60 -107 -81 -107 -42 0 -123 36 -162 72 -53 49 -128 159 -150
219 -22 64 -33 207 -24 328 10 125 21 193 61 356 16 66 29 128 29 138 0 10 7
33 14 52 17 39 49 47 65 18z"/>
<path d="M7728 20124 c-10 -3 -18 -10 -18 -15 0 -5 -6 -9 -14 -9 -8 0 -25 -15
-38 -32 -20 -28 -23 -45 -23 -115 0 -52 5 -87 13 -94 6 -7 12 -20 12 -28 0
-13 36 -90 74 -158 29 -53 100 -129 191 -207 33 -28 205 -116 227 -116 8 0 18
-4 24 -9 5 -5 36 -16 69 -26 33 -9 74 -21 90 -27 17 -5 50 -13 75 -18 25 -5
77 -16 115 -25 39 -9 90 -20 115 -25 62 -12 132 -31 152 -41 10 -5 25 -9 34
-9 9 0 30 -8 47 -17 47 -27 249 -231 462 -467 79 -87 72 -80 140 -161 27 -33
52 -62 55 -65 3 -3 21 -25 40 -50 19 -25 43 -54 53 -65 10 -11 34 -43 54 -72
20 -29 40 -53 45 -53 4 0 8 -5 8 -11 0 -9 45 -75 60 -89 4 -3 16 -22 29 -42
12 -21 26 -38 31 -38 4 0 10 -8 14 -17 5 -18 26 -53 36 -63 7 -6 83 -122 90
-135 12 -23 66 -100 73 -103 4 -2 7 -8 7 -13 0 -6 18 -37 40 -70 22 -33 40
-63 40 -66 0 -3 10 -19 23 -36 12 -18 27 -41 33 -52 27 -49 58 -104 84 -150
41 -69 150 -292 150 -305 0 -5 5 -10 10 -10 6 0 10 -8 10 -18 0 -10 7 -27 15
-38 8 -10 15 -26 15 -34 0 -8 12 -37 25 -65 14 -27 25 -55 25 -62 0 -12 22
-66 41 -105 5 -10 9 -25 9 -34 0 -9 6 -28 14 -42 8 -15 22 -54 31 -87 10 -33
21 -64 25 -70 4 -5 10 -23 13 -40 5 -31 20 -75 44 -132 7 -17 13 -36 13 -42 0
-6 5 -11 10 -11 6 0 10 -7 10 -16 0 -20 74 -131 104 -156 27 -22 39 -22 59 0
24 26 25 321 2 391 -9 25 -31 93 -49 151 -65 205 -109 308 -256 605 -176 357
-201 400 -351 620 -64 94 -147 222 -184 285 -79 134 -126 207 -155 237 -11 12
-20 27 -20 33 0 5 -3 10 -7 10 -5 0 -24 23 -43 50 -19 27 -38 50 -42 50 -5 0
-8 5 -8 11 0 6 -6 16 -12 23 -7 7 -31 34 -53 61 -22 26 -44 53 -50 59 -5 6
-25 29 -44 51 -112 133 -391 425 -405 425 -3 0 -15 9 -26 20 -11 11 -18 20
-15 20 3 0 -14 19 -37 41 -24 23 -42 46 -41 50 2 5 -3 6 -10 4 -6 -3 -37 20
-67 50 -30 30 -61 55 -69 55 -8 0 -12 3 -9 6 8 7 -35 51 -44 47 -5 -2 -8 3 -8
12 0 9 -4 13 -10 10 -5 -3 -10 -2 -10 3 0 5 -15 20 -34 33 -22 15 -32 28 -28
38 3 9 2 13 -3 9 -4 -4 -14 0 -22 10 -9 10 -12 11 -7 2 4 -9 -2 -7 -17 6 -13
11 -49 36 -79 55 -67 42 -187 137 -300 239 -47 42 -101 83 -120 90 -86 33
-208 101 -239 134 -23 23 -44 36 -61 36 -14 0 -31 5 -38 12 -12 12 -181 21
-214 12z"/>
<path d="M14240 20124 c-50 -19 -88 -41 -162 -96 -46 -34 -171 -119 -278 -188
-203 -131 -355 -240 -495 -356 -26 -21 -51 -38 -56 -37 -5 2 -9 -4 -9 -12 0
-8 -4 -15 -9 -15 -5 0 -30 -20 -55 -46 -28 -27 -51 -42 -59 -38 -6 4 -9 3 -4
-1 9 -11 -31 -55 -50 -55 -8 0 -11 -4 -8 -10 3 -5 2 -10 -4 -10 -11 0 -121
-111 -121 -122 0 -5 -5 -8 -12 -8 -18 0 -278 -270 -409 -425 -19 -22 -38 -45
-44 -51 -5 -6 -28 -33 -50 -59 -22 -27 -46 -54 -52 -61 -7 -7 -13 -17 -13 -22
0 -6 -3 -12 -8 -14 -4 -1 -23 -23 -42 -48 -19 -25 -37 -47 -40 -50 -11 -10
-170 -230 -170 -235 0 -3 -9 -18 -19 -33 -48 -68 -171 -273 -199 -332 -17 -36
-57 -105 -88 -155 -230 -362 -484 -860 -484 -948 0 -13 -4 -27 -9 -32 -5 -6
-14 -32 -20 -60 -24 -119 -31 -146 -41 -165 -6 -11 -10 -90 -11 -186 0 -143 3
-169 17 -185 21 -23 33 -23 60 -1 30 25 104 136 104 156 0 9 5 16 10 16 6 0
10 5 10 11 0 6 6 25 13 42 24 57 39 101 44 132 3 17 9 35 13 40 4 6 15 37 25
70 9 33 23 72 31 87 8 14 14 33 14 42 0 9 4 24 9 34 19 39 41 93 41 105 0 7
11 35 25 62 13 28 25 57 25 65 0 8 7 24 15 34 8 11 15 28 15 37 0 10 3 19 8
21 10 4 42 75 42 93 0 7 4 15 8 17 5 2 25 37 46 78 20 41 50 98 66 125 26 46
57 101 84 150 6 11 20 34 32 50 11 17 24 37 28 45 10 23 29 52 54 87 12 17 22
36 22 41 0 6 3 12 8 14 6 3 60 80 72 103 7 13 83 129 90 135 10 10 31 45 36
63 4 9 10 17 14 17 5 0 19 17 31 38 13 20 25 39 29 42 15 14 60 80 60 89 0 6
4 11 8 11 5 0 25 24 45 53 20 29 44 61 54 72 10 11 34 40 53 65 19 25 37 47
40 50 3 3 34 39 68 80 193 229 529 579 589 613 17 9 38 17 47 17 9 0 24 4 34
9 22 11 92 30 157 41 28 5 79 17 115 25 36 9 85 20 110 25 25 5 59 13 75 18
17 6 57 18 90 27 33 10 64 21 70 26 5 5 15 9 23 9 26 0 197 90 242 127 72 61
147 144 176 196 38 68 74 145 74 158 0 8 6 21 13 28 7 7 12 42 12 94 0 70 -3
87 -23 115 -13 17 -29 32 -37 32 -7 0 -15 6 -17 13 -5 13 -168 22 -198 11z"/>
<path d="M12287 18581 c-9 -16 -17 -33 -17 -38 0 -4 9 7 21 26 11 18 18 35 17
37 -2 2 -12 -10 -21 -25z"/>
<path d="M12239 18503 c-22 -46 -22 -50 1 -15 13 18 20 35 18 37 -3 3 -11 -7
-19 -22z"/>
<path d="M10760 17003 c1 -12 39 -79 40 -70 0 12 -28 77 -34 77 -4 0 -6 -3 -6
-7z"/>
<path d="M10945 15894 c-131 -47 -221 -114 -277 -206 -28 -45 -57 -141 -64
-210 -6 -62 17 -219 36 -243 4 -5 11 -21 15 -35 9 -32 85 -138 118 -166 84
-73 182 -107 307 -106 110 0 172 19 259 80 53 36 133 131 153 182 6 14 14 34
19 45 13 31 39 162 39 200 0 57 -29 173 -57 231 -47 95 -158 183 -292 229 -56
19 -202 19 -256 -1z"/>
<path d="M10624 14941 c-21 -15 -49 -48 -61 -72 -138 -282 -152 -331 -143
-509 4 -63 4 -517 2 -1008 -5 -890 -1 -1019 29 -1038 5 -3 9 -16 9 -28 0 -13
7 -29 15 -36 8 -7 15 -17 15 -22 0 -24 94 -148 152 -202 94 -87 94 -86 106
-86 7 0 12 -3 12 -8 0 -4 17 -16 38 -26 20 -10 44 -22 52 -27 8 -5 22 -12 30
-15 8 -3 22 -9 30 -13 9 -5 49 -14 89 -21 58 -10 90 -10 149 0 69 11 89 17
132 42 8 4 22 11 30 14 38 15 80 39 80 46 0 5 5 8 11 8 12 0 21 7 112 91 54
49 147 174 147 197 0 5 7 15 15 22 8 7 15 23 15 36 0 12 4 25 9 28 26 16 31
160 32 921 1 435 2 824 1 865 0 41 -10 131 -21 200 -26 155 -26 165 0 191 19
19 21 26 10 54 -6 17 -11 38 -11 46 0 12 -60 148 -124 278 -31 65 -86 101
-153 101 -58 0 -105 -19 -140 -56 -12 -13 -27 -24 -33 -24 -5 0 -10 -4 -10 -8
0 -12 -76 -48 -129 -62 -33 -9 -55 -9 -90 0 -54 13 -131 50 -131 62 0 4 -5 8
-10 8 -6 0 -21 11 -33 24 -35 37 -82 56 -140 56 -44 0 -61 -5 -93 -29z"/>
<path d="M11992 13390 c0 -25 5 -83 13 -130 l13 -85 -5 90 c-3 50 -9 108 -13
130 l-8 40 0 -45z"/>
<path d="M10445 11960 c-8 -14 -4 -281 5 -334 4 -22 10 -117 14 -211 3 -93 8
-181 11 -195 3 -14 8 -68 10 -120 11 -206 15 -266 19 -286 2 -11 7 -94 11
-184 3 -90 10 -171 16 -181 5 -10 9 -26 9 -35 0 -26 91 -161 117 -173 14 -7
20 -16 17 -26 -3 -8 -11 -12 -16 -9 -7 4 -7 0 -1 -12 6 -11 7 -30 3 -44 -6
-26 -23 -30 -67 -16 -18 6 -23 3 -29 -18 -3 -14 -3 -37 0 -51 7 -29 -12 -81
-48 -128 -15 -19 -26 -40 -26 -48 0 -8 -5 -20 -11 -26 -6 -6 -16 -31 -22 -55
-15 -63 -20 -330 -8 -423 12 -92 29 -236 41 -345 19 -172 31 -256 40 -278 6
-13 10 -44 10 -70 0 -26 5 -67 11 -92 13 -55 24 -140 43 -331 8 -80 17 -156
20 -170 3 -13 7 -84 11 -158 3 -74 8 -139 12 -144 3 -5 10 -57 14 -116 12
-154 44 -342 73 -424 27 -80 46 -109 110 -172 86 -85 113 -95 240 -96 130 0
156 11 246 101 64 65 85 97 110 175 24 73 57 270 70 415 5 58 11 114 14 125 4
11 11 90 16 175 15 234 49 531 70 625 5 22 10 62 10 88 0 27 4 56 10 66 5 10
12 54 16 97 4 44 11 89 15 102 5 13 9 47 9 75 0 29 5 71 10 95 31 132 46 587
24 677 -12 46 -27 76 -81 164 -21 35 -26 55 -25 101 2 65 -10 78 -53 58 -16
-7 -29 -8 -34 -2 -12 12 -16 74 -6 99 8 19 49 78 70 101 14 14 40 72 54 114 6
19 13 103 16 185 4 83 10 177 14 210 5 33 9 109 10 170 2 101 6 150 17 215 2
14 6 97 10 185 3 88 7 174 10 190 9 52 17 343 11 360 -6 14 -9 14 -37 0 -16
-8 -43 -29 -60 -45 -17 -17 -33 -30 -36 -30 -3 0 -24 -18 -46 -40 -23 -22 -46
-40 -51 -40 -5 0 -15 -6 -22 -12 -32 -29 -45 -38 -52 -38 -4 0 -30 -11 -58
-24 -123 -58 -130 -60 -270 -60 -136 0 -134 0 -252 50 -17 8 -36 14 -42 14 -6
0 -11 5 -11 10 0 6 -7 10 -15 10 -15 0 -25 6 -60 38 -7 6 -17 12 -22 12 -5 0
-28 18 -51 40 -22 22 -43 40 -46 40 -3 0 -19 13 -36 30 -39 38 -87 63 -95 50z
m1045 -1730 c0 -5 -5 -10 -11 -10 -5 0 -7 5 -4 10 3 6 8 10 11 10 2 0 4 -4 4
-10z"/>
</g>
</svg>
